<?xml version="1.0" encoding="UTF-8"?>
<svg xmlns="http://www.w3.org/2000/svg" viewBox="0 0 234.8 234.8">
  <g id="Layer_1" data-name="Layer 1"/>
  <g id="Layer_2" data-name="Layer 2">
    <g id="summary">
      <circle cx="117.4" cy="117.4" r="115.9" fill="none" stroke="#e8e7e7" stroke-dasharray="0 0 3 9" stroke-linecap="round" stroke-linejoin="round" stroke-width="3"/>
      <polyline points="78.91 101.9 80.16 62.9 84.66 58.4 146.16 58.4 163.66 74.9 164.66 172.4 159.66 178.9 87.16 178.9" fill="none" stroke="#027d8f" stroke-miterlimit="10" stroke-width="3"/>
      <path d="M45.66,169.9h14c.14-9.15,.27-18.3,.41-27.45,.03-2.02,.06-4.03,.09-6.05h-13.5l-1,33.5Z" fill="none" stroke="#027d8f" stroke-miterlimit="10" stroke-width="3"/>
      <path d="M60.07,142.45s2.94-2.61,4.59-5.05c2.26-3.32,3.33-4.6,6.38-8.38,3.33-4.13,3.63-4.11,5.12-7.12,2.43-4.9,.43-6.62,3.12-9.38,1.81-1.85,4.71-2.52,6.88-.12,2.35,2.59,1.59,6.49,1,9.5-1.34,6.85-3.24,9.63-3.24,9.63,0,0,9.85-.98,18.61-.07,3,.31,5.01,3.83,4.66,6-.43,2.7-5.04,5.25-5.04,5.25,0,0,4.86,.63,5,4.69,.11,3.38-7.25,5.03-7.25,5.03,0,0,5.21,1.55,4.25,5.47-.88,3.56-5.91,3.34-5.91,3.34,0,0,3.91,2.6,2.41,5.66-2.05,4.19-8.46,3.17-12,3.5-6.31,.59-12.29,1.14-20-1-6.29-1.75-8.5-3.32-8.5-3.32" fill="none" stroke="#027d8f" stroke-miterlimit="10" stroke-width="3"/>
      <path d="M95.16,89.9c13.92-.08,27.83-.17,41.75-.25" stroke="#027d8f" stroke-miterlimit="10" stroke-width="3"/>
      <path d="M95.16,103.9c13.83,.08,27.67,.17,41.5,.25" stroke="#027d8f" stroke-miterlimit="10" stroke-width="3"/>
      <path d="M95.66,117.4h41" stroke="#027d8f" stroke-miterlimit="10" stroke-width="3"/>
      <path d="M143.41,89.65h5.25" stroke="#027d8f" stroke-miterlimit="10" stroke-width="3"/>
      <path d="M142.66,103.4c1.92-.08,3.83-.17,5.75-.25" stroke="#027d8f" stroke-miterlimit="10" stroke-width="3"/>
      <path d="M142.91,117.9c1.75-.17,3.5-.33,5.25-.5" stroke="#027d8f" stroke-miterlimit="10" stroke-width="3"/>
      <polyline points="145.91 66.65 146.16 76.65 162.66 76.15" fill="none" stroke="#027d8f" stroke-miterlimit="10" stroke-width="3"/>
      <path d="M144.16,136.15c-1.43-.9-4.84-2.76-9.5-2.75-1.59,0-7.29,.23-12,4.75-4.61,4.43-5.19,10.02-5.25,12.25-.05,1.65-.12,7.89,4.75,12.75,4.72,4.72,10.71,4.76,12.25,4.75,6.3-.05,10.47-3.49,12-4.75,1.89-1.56,4.69-3.87,5.75-8,1.03-4.02-.2-7.43-.75-8.75" fill="none" stroke="#027d8f" stroke-miterlimit="10" stroke-width="3"/>
      <polyline points="154.66 133.9 132.91 156.65 123.91 148.4" fill="none" stroke="#027d8f" stroke-miterlimit="10" stroke-width="3"/>
    </g>
  </g>
</svg>